name C:\Users\u0101727\Documents\MyRepositories\upper-imu-dc\OpenSim\subject0\MA\ResultsMA\grid_4nodes_9dim\angles_19.mot
datacolumns 10
datarows 47
range 1975.01000000 1975.47000000
endheader 
time	clav_prot	clav_elev	scapula_abduction	scapula_elevation	scapula_upward_rot	scapula_winging	plane_elv	shoulder_elv	axial_rot	
       1975.01000000	        -50.00000000	         20.00000000	         15.00000000	         -3.33333333	         90.00000000	        -20.00000000	        -90.00000000	        -10.00000000	         90.00000000	
       1975.02000000	        -38.33333333	         20.00000000	         15.00000000	         -3.33333333	         90.00000000	        -20.00000000	        -90.00000000	        -10.00000000	         90.00000000	
       1975.03000000	        -26.66666667	         20.00000000	         15.00000000	         -3.33333333	         90.00000000	        -20.00000000	        -90.00000000	        -10.00000000	         90.00000000	
       1975.04000000	        -15.00000000	         20.00000000	         15.00000000	         -3.33333333	         90.00000000	        -20.00000000	        -90.00000000	        -10.00000000	         90.00000000	
       1975.05000000	        -50.00000000	        -10.00000000	        -40.00000000	          3.33333333	         90.00000000	        -20.00000000	        -90.00000000	        -10.00000000	         90.00000000	
       1975.06000000	        -38.33333333	        -10.00000000	        -40.00000000	          3.33333333	         90.00000000	        -20.00000000	        -90.00000000	        -10.00000000	         90.00000000	
       1975.07000000	        -26.66666667	        -10.00000000	        -40.00000000	          3.33333333	         90.00000000	        -20.00000000	        -90.00000000	        -10.00000000	         90.00000000	
       1975.08000000	        -15.00000000	        -10.00000000	        -40.00000000	          3.33333333	         90.00000000	        -20.00000000	        -90.00000000	        -10.00000000	         90.00000000	
       1975.09000000	        -50.00000000	          0.00000000	        -40.00000000	          3.33333333	         90.00000000	        -20.00000000	        -90.00000000	        -10.00000000	         90.00000000	
       1975.10000000	        -38.33333333	          0.00000000	        -40.00000000	          3.33333333	         90.00000000	        -20.00000000	        -90.00000000	        -10.00000000	         90.00000000	
       1975.11000000	        -26.66666667	          0.00000000	        -40.00000000	          3.33333333	         90.00000000	        -20.00000000	        -90.00000000	        -10.00000000	         90.00000000	
       1975.12000000	        -15.00000000	          0.00000000	        -40.00000000	          3.33333333	         90.00000000	        -20.00000000	        -90.00000000	        -10.00000000	         90.00000000	
       1975.13000000	        -50.00000000	         10.00000000	        -40.00000000	          3.33333333	         90.00000000	        -20.00000000	        -90.00000000	        -10.00000000	         90.00000000	
       1975.14000000	        -38.33333333	         10.00000000	        -40.00000000	          3.33333333	         90.00000000	        -20.00000000	        -90.00000000	        -10.00000000	         90.00000000	
       1975.15000000	        -26.66666667	         10.00000000	        -40.00000000	          3.33333333	         90.00000000	        -20.00000000	        -90.00000000	        -10.00000000	         90.00000000	
       1975.16000000	        -15.00000000	         10.00000000	        -40.00000000	          3.33333333	         90.00000000	        -20.00000000	        -90.00000000	        -10.00000000	         90.00000000	
       1975.17000000	        -50.00000000	         20.00000000	        -40.00000000	          3.33333333	         90.00000000	        -20.00000000	        -90.00000000	        -10.00000000	         90.00000000	
       1975.18000000	        -38.33333333	         20.00000000	        -40.00000000	          3.33333333	         90.00000000	        -20.00000000	        -90.00000000	        -10.00000000	         90.00000000	
       1975.19000000	        -26.66666667	         20.00000000	        -40.00000000	          3.33333333	         90.00000000	        -20.00000000	        -90.00000000	        -10.00000000	         90.00000000	
       1975.20000000	        -15.00000000	         20.00000000	        -40.00000000	          3.33333333	         90.00000000	        -20.00000000	        -90.00000000	        -10.00000000	         90.00000000	
       1975.21000000	        -50.00000000	        -10.00000000	        -21.66666667	          3.33333333	         90.00000000	        -20.00000000	        -90.00000000	        -10.00000000	         90.00000000	
       1975.22000000	        -38.33333333	        -10.00000000	        -21.66666667	          3.33333333	         90.00000000	        -20.00000000	        -90.00000000	        -10.00000000	         90.00000000	
       1975.23000000	        -26.66666667	        -10.00000000	        -21.66666667	          3.33333333	         90.00000000	        -20.00000000	        -90.00000000	        -10.00000000	         90.00000000	
       1975.24000000	        -15.00000000	        -10.00000000	        -21.66666667	          3.33333333	         90.00000000	        -20.00000000	        -90.00000000	        -10.00000000	         90.00000000	
       1975.25000000	        -50.00000000	          0.00000000	        -21.66666667	          3.33333333	         90.00000000	        -20.00000000	        -90.00000000	        -10.00000000	         90.00000000	
       1975.26000000	        -38.33333333	          0.00000000	        -21.66666667	          3.33333333	         90.00000000	        -20.00000000	        -90.00000000	        -10.00000000	         90.00000000	
       1975.27000000	        -26.66666667	          0.00000000	        -21.66666667	          3.33333333	         90.00000000	        -20.00000000	        -90.00000000	        -10.00000000	         90.00000000	
       1975.28000000	        -15.00000000	          0.00000000	        -21.66666667	          3.33333333	         90.00000000	        -20.00000000	        -90.00000000	        -10.00000000	         90.00000000	
       1975.29000000	        -50.00000000	         10.00000000	        -21.66666667	          3.33333333	         90.00000000	        -20.00000000	        -90.00000000	        -10.00000000	         90.00000000	
       1975.30000000	        -38.33333333	         10.00000000	        -21.66666667	          3.33333333	         90.00000000	        -20.00000000	        -90.00000000	        -10.00000000	         90.00000000	
       1975.31000000	        -26.66666667	         10.00000000	        -21.66666667	          3.33333333	         90.00000000	        -20.00000000	        -90.00000000	        -10.00000000	         90.00000000	
       1975.32000000	        -15.00000000	         10.00000000	        -21.66666667	          3.33333333	         90.00000000	        -20.00000000	        -90.00000000	        -10.00000000	         90.00000000	
       1975.33000000	        -50.00000000	         20.00000000	        -21.66666667	          3.33333333	         90.00000000	        -20.00000000	        -90.00000000	        -10.00000000	         90.00000000	
       1975.34000000	        -38.33333333	         20.00000000	        -21.66666667	          3.33333333	         90.00000000	        -20.00000000	        -90.00000000	        -10.00000000	         90.00000000	
       1975.35000000	        -26.66666667	         20.00000000	        -21.66666667	          3.33333333	         90.00000000	        -20.00000000	        -90.00000000	        -10.00000000	         90.00000000	
       1975.36000000	        -15.00000000	         20.00000000	        -21.66666667	          3.33333333	         90.00000000	        -20.00000000	        -90.00000000	        -10.00000000	         90.00000000	
       1975.37000000	        -50.00000000	        -10.00000000	         -3.33333333	          3.33333333	         90.00000000	        -20.00000000	        -90.00000000	        -10.00000000	         90.00000000	
       1975.38000000	        -38.33333333	        -10.00000000	         -3.33333333	          3.33333333	         90.00000000	        -20.00000000	        -90.00000000	        -10.00000000	         90.00000000	
       1975.39000000	        -26.66666667	        -10.00000000	         -3.33333333	          3.33333333	         90.00000000	        -20.00000000	        -90.00000000	        -10.00000000	         90.00000000	
       1975.40000000	        -15.00000000	        -10.00000000	         -3.33333333	          3.33333333	         90.00000000	        -20.00000000	        -90.00000000	        -10.00000000	         90.00000000	
       1975.41000000	        -50.00000000	          0.00000000	         -3.33333333	          3.33333333	         90.00000000	        -20.00000000	        -90.00000000	        -10.00000000	         90.00000000	
       1975.42000000	        -38.33333333	          0.00000000	         -3.33333333	          3.33333333	         90.00000000	        -20.00000000	        -90.00000000	        -10.00000000	         90.00000000	
       1975.43000000	        -26.66666667	          0.00000000	         -3.33333333	          3.33333333	         90.00000000	        -20.00000000	        -90.00000000	        -10.00000000	         90.00000000	
       1975.44000000	        -15.00000000	          0.00000000	         -3.33333333	          3.33333333	         90.00000000	        -20.00000000	        -90.00000000	        -10.00000000	         90.00000000	
       1975.45000000	        -50.00000000	         10.00000000	         -3.33333333	          3.33333333	         90.00000000	        -20.00000000	        -90.00000000	        -10.00000000	         90.00000000	
       1975.46000000	        -38.33333333	         10.00000000	         -3.33333333	          3.33333333	         90.00000000	        -20.00000000	        -90.00000000	        -10.00000000	         90.00000000	
       1975.47000000	        -26.66666667	         10.00000000	         -3.33333333	          3.33333333	         90.00000000	        -20.00000000	        -90.00000000	        -10.00000000	         90.00000000	
